# xmcd CD database file
# Copyright (C) 1993-1996 Ti Kan
#
# Track frame offsets:
#	150
#	19397
#	38597
#	55165
#	80265
#	100557
#	117305
#	143415
#	156247
#
# Disc length: 2363 seconds
#
# Revision: 1
# Processed by: cddbd v1.4b41PL1 Copyright (c) Steve Scherf et al.
# Submitted via: xmcd 2.0
#
DISCID=64093909
DTITLE=James Eric - JE
DYEAR=1900
DGENRE=
TTITLE0=Chase The Sun
TTITLE1=Mud Milk
TTITLE2=Swingin' Sister
TTITLE3=Love Bird
TTITLE4=Sometimes
TTITLE5=Just Alright
TTITLE6=My Little Girl
TTITLE7=Longshot
TTITLE8=Mason Dixson Line
EXTD=
EXTT0=
EXTT1=
EXTT2=
EXTT3=
EXTT4=
EXTT5=
EXTT6=
EXTT7=
EXTT8=
PLAYORDER=
